# xmcd
#
# Track frame offsets: 
#        150
#        18879
#        41248
#        63005
#        87782
#        116372
#        135637
#        158914
#        182740
#        215417
#        240905
#
# Disc length: 3365 seconds
#
# Revision: 0
# Processed by: cddbd v1.5.2PL0 Copyright (c) Steve Scherf et al.
# Submitted via: ExactAudioCopyFreeDBPlugin 1.0
#
DISCID=840d230b
DTITLE=Dan Patlansky - Wooden Thoughts
DYEAR=2013
DGENRE=Blue
TTITLE0=Miss Oowee
TTITLE1=Preachin' Blues
TTITLE2=Wagon Wheel
TTITLE3=Bright Lights, Big City
TTITLE4=Hallelujah
TTITLE5=Kwazi
TTITLE6=Kashmir
TTITLE7=The Weight
TTITLE8=Big Things Going Down
TTITLE9=Bring The World
TTITLE10=Kaynin
EXTD=
EXTT0=
EXTT1=
EXTT2=
EXTT3=
EXTT4=
EXTT5=
EXTT6=
EXTT7=
EXTT8=
EXTT9=
EXTT10=
PLAYORDER=
